<?xml version="1.0" encoding="utf-8"?>
<!-- Generator: Adobe Illustrator 27.7.0, SVG Export Plug-In . SVG Version: 6.00 Build 0)  -->
<svg version="1.1" id="Layer_1" xmlns="http://www.w3.org/2000/svg" xmlns:xlink="http://www.w3.org/1999/xlink" x="0px" y="0px"
	 viewBox="0 0 1028 1080" style="enable-background:new 0 0 1028 1080;" xml:space="preserve">
<style type="text/css">
	.st0{fill:#666666;}
</style>
<path class="st0" d="M69.95,992.5c115.83-134.69,231.18-268.82,346.73-403.18C301.23,421.21,185.92,253.29,70.23,84.83
	c1.8-0.13,3.16-0.32,4.52-0.32c85.17-0.01,170.33,0.01,255.5-0.09c2.99,0,4.78,0.81,6.47,3.29c21.34,31.32,42.76,62.59,64.22,93.83
	c18.64,27.14,37.38,54.21,56.01,81.36c20.69,30.15,41.28,60.38,61.98,90.52c14.77,21.5,29.66,42.92,44.79,64.79
	c7.42-8.58,14.7-16.95,21.93-25.36c31.77-36.93,63.54-73.86,95.3-110.8c34.6-40.25,69.19-80.51,103.78-120.77
	c20.38-23.73,40.95-47.3,60.98-71.32c3.69-4.43,7.25-5.62,12.57-5.57c23.15,0.24,46.31,0.1,70.75,0.1
	C818.46,213.11,708.51,340.98,598.46,468.97C718.28,643.44,837.88,817.59,958,992.5c-1.87,0-2.94,0-4.01,0c-85,0-170-0.03-255,0.09
	c-3.88,0.01-6.27-1.1-8.47-4.32c-21.43-31.46-43.01-62.84-64.56-94.22c-44.88-65.34-89.77-130.66-134.65-196
	c-12.44-18.1-24.85-36.22-37.27-54.33c-0.75-1.09-1.52-2.16-2.63-3.74c-8.35,9.74-16.47,19.28-24.67,28.76
	c-20.45,23.66-41,47.23-61.38,70.95c-27,31.42-53.82,63-80.83,94.41c-30.29,35.21-60.74,70.28-91.05,105.47
	c-14.19,16.48-28.24,33.08-42.25,49.72c-1.98,2.36-3.98,3.31-7.12,3.29C119.62,992.43,95.13,992.5,69.95,992.5z M176.68,143.51
	c0.71,1.12,1.01,1.64,1.36,2.13c57.98,82.98,115.95,165.97,173.93,248.95c33.41,47.82,66.85,95.63,100.26,143.45
	c58.46,83.66,116.91,167.33,175.38,250.99c33.45,47.87,66.95,95.71,100.3,143.64c1.84,2.65,3.65,3.61,6.82,3.6
	c37.16-0.11,74.33-0.06,111.49-0.07c1.22,0,2.44-0.16,4.13-0.28c-0.93-1.46-1.5-2.44-2.15-3.37
	c-53.34-76.35-106.69-152.69-160.03-229.04c-68.77-98.45-137.53-196.91-206.3-295.36c-22.68-32.46-45.39-64.89-68.08-97.34
	c-37.84-54.14-75.7-108.26-113.41-162.49c-2.57-3.7-5.25-4.93-9.72-4.91c-36.33,0.21-72.66,0.12-108.99,0.12
	C180.24,143.51,178.81,143.51,176.68,143.51z"/>
</svg>
